<svg xmlns="http://www.w3.org/2000/svg" width="1000" height="350" viewBox="0 0 1000 350" role="img"><title>A research brief becomes a pinned plan, retained attempts, and evidence-linked findings.</title><rect width="1000" height="350" rx="16" fill="#102427"/><g font-family="system-ui,-apple-system,BlinkMacSystemFont,Segoe UI,sans-serif" fill="#f1f5eb"><text x="32" y="52" font-size="16" letter-spacing="3" fill="#77dfc5">ALLAGMA / FOLLOW THE EVIDENCE</text><text x="32" y="107" font-size="39" font-weight="650">Your question. A checkable research record.</text><rect x="32" y="153" width="210" height="128" rx="6" fill="#183438" stroke="#b4c4c2" stroke-opacity=".3"/><text x="49" y="182" fill="#77dfc5" font-size="15">01</text><text x="49" y="219" font-size="29" font-weight="600">Brief</text><text x="49" y="252" font-size="18" fill="#b4c4c2">Ask a question</text><path d="M248 215h20m-6-6 6 6-6 6" fill="none" stroke="#77dfc5" stroke-width="2"/><rect x="274" y="153" width="210" height="128" rx="6" fill="#183438" stroke="#b4c4c2" stroke-opacity=".3"/><text x="291" y="182" fill="#77dfc5" font-size="15">02</text><text x="291" y="219" font-size="29" font-weight="600">Plan</text><text x="291" y="252" font-size="18" fill="#b4c4c2">Pin the methods</text><path d="M490 215h20m-6-6 6 6-6 6" fill="none" stroke="#77dfc5" stroke-width="2"/><rect x="516" y="153" width="210" height="128" rx="6" fill="#183438" stroke="#b4c4c2" stroke-opacity=".3"/><text x="533" y="182" fill="#77dfc5" font-size="15">03</text><text x="533" y="219" font-size="29" font-weight="600">Attempts</text><text x="533" y="252" font-size="18" fill="#b4c4c2">Keep the record</text><path d="M732 215h20m-6-6 6 6-6 6" fill="none" stroke="#77dfc5" stroke-width="2"/><rect x="758" y="153" width="210" height="128" rx="6" fill="#183438" stroke="#b4c4c2" stroke-opacity=".3"/><text x="775" y="182" fill="#77dfc5" font-size="15">04</text><text x="775" y="219" font-size="29" font-weight="600">Findings</text><text x="775" y="252" font-size="18" fill="#b4c4c2">Check the claims</text><text x="32" y="326" font-size="16" fill="#b4c4c2">Portable methods · Exact locks · Evidence-linked claims</text></g></svg>