<svg xmlns="http://www.w3.org/2000/svg" viewBox="0 0 840 640" role="img" aria-labelledby="title description">
<title id="title">Paired squared-error differences by confirmation seed</title>
<desc id="description">Positive differences favor the sample mean. The dashed line is the across-seed mean; the solid vertical line is zero.</desc>
<rect width="840" height="640" fill="white"/>
<g font-family="sans-serif" fill="#172b3a">
<text x="30" y="32" font-size="20">Paired squared-error differences</text>
<text x="30" y="56" font-size="13">One dot per confirmation seed; dashed line: mean difference</text>
<text x="30" y="80" font-size="12">Seed</text>
<line x1="110.000" x2="110.000" y1="90" y2="570" stroke="#e2e8ee"/>
<text x="110.000" y="596" text-anchor="middle" font-size="12">-0.134</text>
<line x1="246.000" x2="246.000" y1="90" y2="570" stroke="#e2e8ee"/>
<text x="246.000" y="596" text-anchor="middle" font-size="12">-0.074</text>
<line x1="382.000" x2="382.000" y1="90" y2="570" stroke="#e2e8ee"/>
<text x="382.000" y="596" text-anchor="middle" font-size="12">-0.014</text>
<line x1="518.000" x2="518.000" y1="90" y2="570" stroke="#e2e8ee"/>
<text x="518.000" y="596" text-anchor="middle" font-size="12">0.046</text>
<line x1="654.000" x2="654.000" y1="90" y2="570" stroke="#e2e8ee"/>
<text x="654.000" y="596" text-anchor="middle" font-size="12">0.106</text>
<line x1="790.000" x2="790.000" y1="90" y2="570" stroke="#e2e8ee"/>
<text x="790.000" y="596" text-anchor="middle" font-size="12">0.166</text>
<line x1="414.583" x2="414.583" y1="90" y2="570" stroke="#526777"/>
<line x1="562.153" x2="562.153" y1="90" y2="570" stroke="#172b3a" stroke-dasharray="5 4"/>
<text x="85" y="104.000" text-anchor="end" font-size="12">100</text>
<circle data-seed="100" data-difference="0.0625" cx="556.250" cy="100.000" r="4" fill="#0072b2"/>
<text x="85" y="124.000" text-anchor="end" font-size="12">101</text>
<circle data-seed="101" data-difference="0.109375" cx="662.500" cy="120.000" r="4" fill="#0072b2"/>
<text x="85" y="144.000" text-anchor="end" font-size="12">102</text>
<circle data-seed="102" data-difference="0.0625" cx="556.250" cy="140.000" r="4" fill="#0072b2"/>
<text x="85" y="164.000" text-anchor="end" font-size="12">103</text>
<circle data-seed="103" data-difference="0.046875" cx="520.833" cy="160.000" r="4" fill="#0072b2"/>
<text x="85" y="184.000" text-anchor="end" font-size="12">104</text>
<circle data-seed="104" data-difference="-0.109375" cx="166.667" cy="180.000" r="4" fill="#c45100"/>
<text x="85" y="204.000" text-anchor="end" font-size="12">105</text>
<circle data-seed="105" data-difference="0.125" cx="697.917" cy="200.000" r="4" fill="#0072b2"/>
<text x="85" y="224.000" text-anchor="end" font-size="12">106</text>
<circle data-seed="106" data-difference="0.140625" cx="733.333" cy="220.000" r="4" fill="#0072b2"/>
<text x="85" y="244.000" text-anchor="end" font-size="12">107</text>
<circle data-seed="107" data-difference="0.0625" cx="556.250" cy="240.000" r="4" fill="#0072b2"/>
<text x="85" y="264.000" text-anchor="end" font-size="12">108</text>
<circle data-seed="108" data-difference="-0.046875" cx="308.333" cy="260.000" r="4" fill="#c45100"/>
<text x="85" y="284.000" text-anchor="end" font-size="12">109</text>
<circle data-seed="109" data-difference="0.09375" cx="627.083" cy="280.000" r="4" fill="#0072b2"/>
<text x="85" y="304.000" text-anchor="end" font-size="12">110</text>
<circle data-seed="110" data-difference="0.125" cx="697.917" cy="300.000" r="4" fill="#0072b2"/>
<text x="85" y="324.000" text-anchor="end" font-size="12">111</text>
<circle data-seed="111" data-difference="0.09375" cx="627.083" cy="320.000" r="4" fill="#0072b2"/>
<text x="85" y="344.000" text-anchor="end" font-size="12">112</text>
<circle data-seed="112" data-difference="0.0625" cx="556.250" cy="340.000" r="4" fill="#0072b2"/>
<text x="85" y="364.000" text-anchor="end" font-size="12">113</text>
<circle data-seed="113" data-difference="0.046875" cx="520.833" cy="360.000" r="4" fill="#0072b2"/>
<text x="85" y="384.000" text-anchor="end" font-size="12">114</text>
<circle data-seed="114" data-difference="0.046875" cx="520.833" cy="380.000" r="4" fill="#0072b2"/>
<text x="85" y="404.000" text-anchor="end" font-size="12">115</text>
<circle data-seed="115" data-difference="0.03125" cx="485.417" cy="400.000" r="4" fill="#0072b2"/>
<text x="85" y="424.000" text-anchor="end" font-size="12">116</text>
<circle data-seed="116" data-difference="0.140625" cx="733.333" cy="420.000" r="4" fill="#0072b2"/>
<text x="85" y="444.000" text-anchor="end" font-size="12">117</text>
<circle data-seed="117" data-difference="0.109375" cx="662.500" cy="440.000" r="4" fill="#0072b2"/>
<text x="85" y="464.000" text-anchor="end" font-size="12">118</text>
<circle data-seed="118" data-difference="-0.03125" cx="343.750" cy="460.000" r="4" fill="#c45100"/>
<text x="85" y="484.000" text-anchor="end" font-size="12">119</text>
<circle data-seed="119" data-difference="0.046875" cx="520.833" cy="480.000" r="4" fill="#0072b2"/>
<text x="85" y="504.000" text-anchor="end" font-size="12">120</text>
<circle data-seed="120" data-difference="0.140625" cx="733.333" cy="500.000" r="4" fill="#0072b2"/>
<text x="85" y="524.000" text-anchor="end" font-size="12">121</text>
<circle data-seed="121" data-difference="0" cx="414.583" cy="520.000" r="4" fill="#c45100"/>
<text x="85" y="544.000" text-anchor="end" font-size="12">122</text>
<circle data-seed="122" data-difference="0.109375" cx="662.500" cy="540.000" r="4" fill="#0072b2"/>
<text x="85" y="564.000" text-anchor="end" font-size="12">123</text>
<circle data-seed="123" data-difference="0.09375" cx="627.083" cy="560.000" r="4" fill="#0072b2"/>
<text x="450" y="625" text-anchor="middle" font-size="13">Squared error: biased estimator − sample mean</text>
</g></svg>
